<svg width="246" height="40" viewBox="0 0 246 40" xmlns="http://www.w3.org/2000/svg" xmlns:xlink="http://www.w3.org/1999/xlink"><title>MPI-Logo</title><defs><path d="M22.195.084A7.424 7.424 0 0 0 18.682 4c2.282.493 4.677.84 6.9.84 1.14 0 2.288-.071 3.424-.193V.104a7.36 7.36 0 0 0-.039-.02h-6.772zM2.601 11.43a4.588 4.588 0 0 1-1.094-.758C.521 9.746 0 8.407 0 6.8c0-1.958.619-3.422 1.842-4.352 1.273-.967 2.884-1.111 3.73-1.111.85 0 1.686.137 2.24.366 1.033.43 10.308 4.199 17.77 4.199a33.05 33.05 0 0 0 3.424-.187v5.715h-11.22c-1.653-1.195-3.07-2.645-4.407-4.015-1.854-1.9-3.605-3.694-5.608-4.304-.843-.257-1.638-.388-2.363-.388-3.133 0-4.27 2.323-4.27 3.885 0 3.017 1.702 4.748 4.669 4.748.956 0 2.016-.176 3.168-.525-.374.233-.76.434-1.156.6H2.601z" id="a"/><path d="M19.827.104A7.425 7.425 0 0 0 16.352 4c2.282.493 4.677.84 6.899.84 2.34 0 4.706-.298 6.943-.726A7.434 7.434 0 0 0 26.676.104h-6.85zM.27 11.43a5.554 5.554 0 0 0 2.488.561c1.346 0 2.682-.407 3.887-1.16-1.152.349-2.212.525-3.168.525-1.34 0-2.423-.353-3.207-1.019v1.093zm0-7.829c.666-.524 1.585-.878 2.808-.878.725 0 1.52.13 2.362.388 2.003.61 3.754 2.404 5.61 4.304 3.04 3.115 6.487 6.645 12.2 6.645 3.738 0 6.746-.914 9.204-2.162V4.725c-2.862.656-6.045 1.177-9.203 1.177-7.461 0-16.736-3.769-17.77-4.199-.553-.229-1.39-.366-2.239-.366-.685 0-1.87.094-2.972.642v1.622zm16.708 15.36h12.547a7.043 7.043 0 0 0-12.547 0z" id="c"/><path id="e" d="M.134 6.039h38.769v-6H.134z"/></defs><g fill="none" fill-rule="evenodd"><path d="M71.98 16.528l-3.263-8.536h-.052c.06.676.091 1.48.091 2.41v6.126h-1.032v-9.63h1.684l3.045 7.944h.053l3.071-7.944h1.671v9.63H76.13v-6.205c0-.711.03-1.484.092-2.318h-.052l-3.29 8.523h-.9M85.206 12.457l-1.118-2.983a15.876 15.876 0 0 1-.447-1.39 12.48 12.48 0 0 1-.414 1.39l-1.132 2.983h3.111zm1.546 4.07l-1.197-3.062H81.7l-1.183 3.063h-1.132l3.802-9.669h.94l3.783 9.669h-1.158zM97.087 16.528h-1.27l-2.585-4.235-2.63 4.235h-1.184l3.196-5.032-2.98-4.598h1.237l2.388 3.814 2.407-3.814h1.19l-2.979 4.558 3.21 5.072M104.426 11.779h1.006c.992 0 1.708-.16 2.152-.481.442-.32.664-.834.664-1.54 0-.638-.209-1.112-.625-1.424-.417-.312-1.066-.467-1.947-.467h-1.25v3.912zm4.98-2.075c0 .975-.333 1.725-.997 2.25-.665.525-1.615.787-2.851.787h-1.132v3.787h-1.118v-9.63h2.493c2.403 0 3.604.935 3.604 2.806zM111.89 16.528v-9.63h1.118v8.615h4.242v1.015h-5.36" fill="#191919"/><path d="M124.7 12.457l-1.118-2.983a16.05 16.05 0 0 1-.447-1.39 12.49 12.49 0 0 1-.415 1.39l-1.13 2.983h3.11zm1.546 4.07l-1.197-3.062h-3.854l-1.185 3.063h-1.13l3.801-9.669h.94l3.782 9.669h-1.157zM137.06 16.528h-1.277l-5.255-8.081h-.053c.07.948.105 1.817.105 2.608v5.473h-1.032v-9.63h1.263l5.242 8.05h.052c-.009-.12-.028-.5-.059-1.144a19.717 19.717 0 0 1-.033-1.379V6.898h1.046v9.63M144.427 7.762c-1.057 0-1.89.352-2.502 1.056-.612.705-.918 1.67-.918 2.896 0 1.26.295 2.233.885 2.92.59.687 1.43 1.032 2.522 1.032.67 0 1.436-.122 2.296-.363v.98c-.667.252-1.49.377-2.467.377-1.416 0-2.51-.43-3.278-1.291-.77-.86-1.155-2.083-1.155-3.67 0-.99.185-1.86.555-2.608.37-.745.906-1.32 1.605-1.725.7-.403 1.523-.605 2.47-.605 1.009 0 1.89.184 2.645.553l-.474.96c-.728-.342-1.456-.512-2.184-.512M156.374 16.528h-1.316l-3.506-4.67-1.006.896v3.774h-1.119v-9.63h1.119v4.775l4.36-4.775h1.323l-3.868 4.183 4.013 5.447M162.542 16.528h1.118v-9.63h-1.118zM174.389 16.528h-1.276l-5.256-8.081h-.053c.07.948.106 1.817.106 2.608v5.473h-1.033v-9.63h1.263l5.242 8.05h.053c-.01-.12-.029-.5-.06-1.144a19.716 19.716 0 0 1-.032-1.379V6.898h1.046v9.63M183.052 13.965c0 .848-.307 1.51-.92 1.983-.615.474-1.448.712-2.5.712-1.14 0-2.018-.147-2.631-.441v-1.08c.394.166.824.298 1.289.395.465.097.925.144 1.381.144.746 0 1.307-.142 1.684-.425.377-.283.566-.677.566-1.183 0-.332-.067-.606-.201-.819-.134-.213-.358-.409-.671-.589-.313-.18-.79-.384-1.43-.613-.895-.32-1.534-.7-1.918-1.14-.384-.438-.575-1.011-.575-1.718 0-.742.278-1.333.835-1.772.557-.44 1.293-.658 2.21-.658.956 0 1.835.175 2.637.526l-.348.975c-.794-.333-1.566-.5-2.315-.5-.592 0-1.055.127-1.388.38-.333.256-.5.61-.5 1.062 0 .333.061.606.184.82.123.212.33.408.621.586.292.178.739.375 1.34.59 1.008.36 1.701.746 2.08 1.158.38.414.57.949.57 1.607M188.948 16.528h-1.118V7.893h-3.046v-.995h7.21v.995h-3.046v8.635M194.182 16.528h1.118v-9.63h-1.118zM201.665 16.528h-1.118V7.893h-3.045v-.995h7.209v.995h-3.046v8.635M214.228 6.898v6.231c0 1.098-.332 1.961-.994 2.59-.662.627-1.572.94-2.73.94-1.157 0-2.053-.315-2.686-.948-.634-.632-.951-1.501-.951-2.608V6.898h1.118v6.284c0 .804.22 1.42.658 1.851.439.43 1.083.645 1.934.645.811 0 1.436-.216 1.874-.649.439-.432.658-1.052.658-1.86v-6.27h1.119M220.54 16.528h-1.117V7.893h-3.046v-.995h7.21v.995h-3.046v8.635M231.135 16.528h-5.36v-9.63h5.36v.995h-4.243v3.102h3.986v.988h-3.986v3.543h4.243v1.002M69.618 32.715h-2.006v-9.63h5.512v1.674h-3.506v2.483h3.263v1.666h-3.263v3.807M77.295 27.887c0 1.076.204 1.886.611 2.43.408.545 1.018.817 1.829.817 1.627 0 2.44-1.082 2.44-3.247 0-2.169-.809-3.254-2.427-3.254-.811 0-1.423.274-1.835.82-.412.547-.618 1.358-.618 2.434zm7.018 0c0 1.594-.395 2.818-1.184 3.676-.79.855-1.92 1.283-3.394 1.283-1.473 0-2.605-.428-3.394-1.283-.79-.858-1.184-2.086-1.184-3.689 0-1.603.396-2.827 1.187-3.673.791-.844 1.926-1.268 3.404-1.268s2.608.427 3.391 1.28c.782.85 1.174 2.076 1.174 3.674zM88.978 27.36h.658c.645 0 1.12-.108 1.427-.323.307-.215.46-.553.46-1.014 0-.457-.157-.781-.47-.975-.313-.193-.799-.29-1.457-.29h-.618v2.602zm0 1.66v3.695h-2.039v-9.63h2.802c1.307 0 2.274.239 2.901.715.627.476.94 1.2.94 2.17 0 .567-.155 1.071-.467 1.512-.31.441-.752.787-1.322 1.037a382.992 382.992 0 0 0 2.829 4.196h-2.263l-2.296-3.696h-1.085zM106.355 30.04c0 .87-.313 1.555-.938 2.055-.625.501-1.494.751-2.608.751-1.026 0-1.934-.193-2.723-.58V30.37c.65.29 1.198.493 1.648.613.45.118.86.177 1.233.177.447 0 .79-.086 1.03-.256.239-.172.358-.426.358-.764a.845.845 0 0 0-.158-.504 1.76 1.76 0 0 0-.463-.425c-.205-.136-.62-.353-1.247-.652-.588-.277-1.028-.543-1.322-.797a2.99 2.99 0 0 1-.704-.889c-.175-.338-.263-.733-.263-1.186 0-.851.288-1.522.865-2.009.576-.487 1.374-.73 2.391-.73.5 0 .977.058 1.43.177.455.118.93.285 1.424.5l-.657 1.588a9.7 9.7 0 0 0-1.273-.441 4.088 4.088 0 0 0-.99-.126c-.386 0-.682.09-.888.27a.89.89 0 0 0-.309.705c0 .18.042.337.125.471.083.134.216.264.398.389.182.125.613.35 1.292.675.9.43 1.515.861 1.849 1.294.333.432.5.963.5 1.59M110.508 27.887c0 1.076.204 1.886.612 2.43.408.545 1.017.817 1.829.817 1.626 0 2.44-1.082 2.44-3.247 0-2.169-.81-3.254-2.427-3.254-.812 0-1.423.274-1.836.82-.412.547-.618 1.358-.618 2.434zm7.018 0c0 1.594-.394 2.818-1.183 3.676-.79.855-1.921 1.283-3.394 1.283-1.474 0-2.605-.428-3.395-1.283-.79-.858-1.183-2.086-1.183-3.689 0-1.603.395-2.827 1.187-3.673.791-.844 1.926-1.268 3.404-1.268 1.477 0 2.607.427 3.39 1.28.783.85 1.174 2.076 1.174 3.674zM122.159 32.715h-2.007v-9.63h5.513v1.674h-3.506v2.483h3.262v1.666h-3.262v3.807M132.226 32.715h-2.04v-7.93h-2.611v-1.7h7.262v1.7h-2.611v7.93M146.99 32.715h-2.322l-1.302-5.058c-.048-.18-.13-.553-.247-1.117-.116-.564-.183-.943-.2-1.136-.027.237-.093.618-.198 1.142-.105.525-.186.9-.243 1.124l-1.296 5.045h-2.315l-2.454-9.63h2.006l1.23 5.257c.215.97.371 1.81.467 2.521.027-.249.087-.637.181-1.161.094-.526.183-.932.267-1.222l1.4-5.394h1.928l1.4 5.394c.062.241.14.61.23 1.107.093.496.164.922.212 1.276.043-.342.114-.769.21-1.28.097-.512.184-.925.263-1.241l1.223-5.256h2.007l-2.447 9.629M155.808 28.71a709.622 709.622 0 0 1-1.089-3.523 9.841 9.841 0 0 1-.174-.646c-.145.562-.56 1.952-1.243 4.17h2.506zm1.184 4.005l-.698-2.292h-3.505l-.697 2.292h-2.197l3.393-9.67h2.493l3.407 9.67h-2.196zM163.273 27.36h.658c.645 0 1.12-.108 1.427-.323.307-.215.46-.553.46-1.014 0-.457-.156-.781-.47-.975-.313-.193-.799-.29-1.456-.29h-.619v2.602zm0 1.66v3.695h-2.039v-9.63h2.802c1.307 0 2.274.239 2.901.715.627.476.94 1.2.94 2.17 0 .567-.155 1.071-.466 1.512-.312.441-.753.787-1.322 1.037a382.994 382.994 0 0 0 2.828 4.196h-2.263l-2.295-3.696h-1.086zM176.5 32.715h-5.538v-9.63h5.539v1.674H173v2.114h3.256v1.672h-3.255v2.484h3.499v1.686M189.03 30.04c0 .87-.313 1.555-.937 2.055-.626.501-1.495.751-2.609.751-1.026 0-1.934-.193-2.723-.58V30.37c.65.29 1.198.493 1.648.613.449.118.86.177 1.233.177.447 0 .79-.086 1.03-.256.238-.172.358-.426.358-.764a.845.845 0 0 0-.158-.504 1.76 1.76 0 0 0-.463-.425c-.205-.136-.62-.353-1.247-.652-.587-.277-1.028-.543-1.322-.797a2.997 2.997 0 0 1-.704-.889c-.175-.338-.263-.733-.263-1.186 0-.851.288-1.522.865-2.009.577-.487 1.374-.73 2.39-.73.501 0 .978.058 1.431.177.455.118.929.285 1.425.5l-.658 1.588a9.721 9.721 0 0 0-1.272-.441 4.095 4.095 0 0 0-.99-.126c-.387 0-.683.09-.889.27a.89.89 0 0 0-.309.705c0 .18.042.337.125.471.083.134.216.264.398.389.182.125.613.35 1.293.675.899.43 1.515.861 1.848 1.294.333.432.5.963.5 1.59M194.83 27.05l2.006-3.964h2.196l-3.19 5.88v3.749h-2.026v-3.682l-3.19-5.947h2.21l1.993 3.964M206.552 30.04c0 .87-.312 1.555-.937 2.055-.625.501-1.494.751-2.608.751-1.026 0-1.934-.193-2.723-.58V30.37c.649.29 1.198.493 1.648.613.449.118.86.177 1.233.177.447 0 .79-.086 1.03-.256.238-.172.358-.426.358-.764a.845.845 0 0 0-.158-.504 1.758 1.758 0 0 0-.464-.425c-.204-.136-.62-.353-1.246-.652-.588-.277-1.029-.543-1.322-.797a2.982 2.982 0 0 1-.704-.889c-.176-.338-.263-.733-.263-1.186 0-.851.288-1.522.865-2.009.576-.487 1.373-.73 2.39-.73.5 0 .978.058 1.431.177.454.118.929.285 1.424.5l-.657 1.588a9.7 9.7 0 0 0-1.273-.441 4.092 4.092 0 0 0-.99-.126c-.386 0-.682.09-.888.27a.89.89 0 0 0-.31.705c0 .18.042.337.126.471.083.134.216.264.397.389.182.125.614.35 1.293.675.899.43 1.515.861 1.848 1.294.334.432.5.963.5 1.59M213.015 32.715h-2.039v-7.93h-2.61v-1.7h7.26v1.7h-2.61v7.93M223.345 32.715h-5.538v-9.63h5.538v1.674h-3.499v2.114h3.256v1.672h-3.256v2.484h3.5v1.686M230.137 32.715l-2.315-7.555h-.06c.084 1.538.125 2.562.125 3.076v4.479h-1.821v-9.63h2.775l2.276 7.364h.04l2.414-7.363h2.775v9.629h-1.9v-4.558c0-.215.003-.463.01-.745.006-.28.036-1.027.088-2.24h-.059l-2.48 7.543h-1.868M245.211 30.04c0 .87-.312 1.555-.937 2.055-.625.501-1.494.751-2.608.751-1.026 0-1.934-.193-2.723-.58V30.37c.649.29 1.198.493 1.648.613.449.118.86.177 1.233.177.447 0 .79-.086 1.03-.256.238-.172.358-.426.358-.764a.845.845 0 0 0-.158-.504 1.765 1.765 0 0 0-.464-.425c-.204-.136-.62-.353-1.246-.652-.588-.277-1.029-.543-1.322-.797a2.982 2.982 0 0 1-.704-.889c-.176-.338-.263-.733-.263-1.186 0-.851.288-1.522.865-2.009.576-.487 1.373-.73 2.39-.73.5 0 .978.058 1.431.177.454.118.929.285 1.424.5l-.658 1.588a9.675 9.675 0 0 0-1.272-.441 4.092 4.092 0 0 0-.99-.126c-.386 0-.682.09-.888.27a.89.89 0 0 0-.31.705c0 .18.042.337.126.471.083.134.215.264.397.389.182.125.614.35 1.293.675.899.43 1.515.861 1.848 1.294.333.432.5.963.5 1.59" fill="#262626"/><path d="M53.08 14.417c-1.45-.7-3.092-1.052-4.903-1.052-1.381 0-2.846.194-4.476.593-.762.187-1.71.466-2.809.788-3.826 1.123-9.609 2.822-15.31 2.822-7.462 0-16.737-3.768-17.77-4.198-.554-.23-1.391-.367-2.24-.367-.846 0-2.457.144-3.73 1.112C.62 15.044 0 16.508 0 18.467c0 1.607.521 2.946 1.507 3.872.905.85 2.177 1.32 3.581 1.318 1.347 0 2.684-.407 3.887-1.16-1.152.35-2.212.526-3.168.526-2.968 0-4.67-1.73-4.67-4.749 0-1.56 1.138-3.884 4.271-3.884.725 0 1.52.13 2.363.387 2.003.61 3.754 2.405 5.608 4.304 3.041 3.115 6.488 6.645 12.202 6.645 7.875 0 12.514-4.06 15.584-6.747.56-.49 1.088-.952 1.57-1.33a15.035 15.035 0 0 1 10.344-3.232m-27.498 2.09c2.34 0 4.706-.297 6.943-.724a7.429 7.429 0 0 0-4.074-4.276A2.891 2.891 0 0 0 25.58 8.96a2.89 2.89 0 0 0-2.867 2.547 7.423 7.423 0 0 0-4.032 4.16c2.282.494 4.677.84 6.9.84m-6.274 14.12h12.547a7.045 7.045 0 0 0-6.274-3.84 7.045 7.045 0 0 0-6.273 3.84" fill="#5397CC"/><g transform="translate(0 11.667)"><mask id="b" fill="#fff"><use xlink:href="#a"/></mask><path d="M3.64 10.966C2.21 10.374 1.35 9.124 1.171 7.333c.179 1.79 1.04 3.041 2.467 3.633M.02 6.225V6.22v.006m0-.011c.078-1.136.386-2.085.923-2.84C.406 4.13.097 5.079.02 6.215" fill="#5397CC" mask="url(#b)"/><path d="M2.6 11.43a4.592 4.592 0 0 1-1.093-.758C.72 9.932.228 8.929.063 7.737A6.777 6.777 0 0 1 0 6.8c0-.196.007-.388.019-.575V6.22v-.005c.078-1.136.387-2.085.923-2.84.562.08 1.123.15 1.68.21a3.894 3.894 0 0 0-1.485 3.024c0 .25.012.492.035.725.179 1.791 1.04 3.041 2.467 3.633.2.083.41.152.63.21a70.4 70.4 0 0 1-1.669.254M14.395 8.447c-.345-.345-.683-.691-1.016-1.032-.402-.412-.799-.82-1.195-1.21.396.39.793.797 1.195 1.21.333.34.671.686 1.016 1.032m-3.629-3.554a11.498 11.498 0 0 1 0 0m4.937-.529a66.993 66.993 0 0 1-3.03-.897h.001c.93.299 1.95.606 3.03.897" fill="#5397CC" mask="url(#b)"/><path d="M14.395 8.447c-.345-.346-.683-.691-1.016-1.033a92.23 92.23 0 0 0-1.195-1.21c-.472-.465-.943-.91-1.418-1.311-.518-.44-1.043-.83-1.58-1.147a57.024 57.024 0 0 0 3.488-.279c.93.299 1.95.606 3.03.897 1.55.419 3.222.805 4.91 1.085-1.989 1.104-4.073 2.131-6.22 2.998M22.102 4.6a41.27 41.27 0 0 0 0 0s0-.001 0 0M22.102 4.599a41.27 41.27 0 0 1-3.42-.598c.225-.582.52-1.129.877-1.628C23.07 1.659 26.272.804 28.875.108a6.81 6.81 0 0 0 .092-.024l.039.02c-2.08 1.471-4.406 3.03-6.904 4.495" fill="#5397CC" mask="url(#b)"/></g><g transform="translate(2.33 11.667)"><mask id="d" fill="#fff"><use xlink:href="#c"/></mask><path d="M18.475 18.961h-1.497 1.498m-.571-1.38M18.476 18.961h-1.498a7.08 7.08 0 0 1 2.318-2.624 7.004 7.004 0 0 1 3.955-1.217c.319 0 .632.021.94.063a29.646 29.646 0 0 1-5.715 3.778M23.25 14.06a21.733 21.733 0 0 1 0 0M23.25 14.06c-2.117 0-3.924-.485-5.514-1.254 3.8-1.932 6.728-4.37 9.065-6.317.382-.318.755-.628 1.115-.923a51.373 51.373 0 0 0 4.538-.841c-1.614 2.858-3.712 6.184-6.877 9.212-.743.08-1.517.123-2.326.123M17.736 12.806c-2.23-1.08-4.033-2.717-5.671-4.359 1.638 1.642 3.442 3.28 5.671 4.359" fill="#5397CC" mask="url(#d)"/><path d="M17.736 12.806c-2.23-1.08-4.033-2.717-5.671-4.359 2.146-.867 4.23-1.894 6.218-2.998 1.673.278 3.363.453 4.968.453 1.563 0 3.132-.127 4.665-.336-.36.295-.733.605-1.115.923-2.337 1.947-5.264 4.385-9.065 6.317M2.758 11.991a6.113 6.113 0 0 1-.004 0h.004c1.346 0 2.683-.407 3.886-1.16h.001c-1.205.753-2.54 1.16-3.887 1.16m2.19-.76" fill="#5397CC" mask="url(#d)"/><path d="M2.754 11.99a6.04 6.04 0 0 1-.66-.035A5.361 5.361 0 0 1 .27 11.43a70.4 70.4 0 0 0 1.669-.255c.466.12.98.18 1.538.18.466 0 .957-.04 1.472-.124.32-.052.648-.12.985-.204.233-.058.469-.123.71-.196-1.203.753-2.54 1.16-3.886 1.16h-.004M23.25 4.84c-1.127 0-2.299-.088-3.479-.24l.001-.001c1.179.153 2.352.242 3.479.242 1.776 0 3.566-.172 5.304-.441-1.738.27-3.528.44-5.304.44m6.86-.938" fill="#5397CC" mask="url(#d)"/><path d="M23.25 4.84c-1.126 0-2.299-.088-3.478-.241 2.498-1.466 4.823-3.024 6.904-4.495a7.434 7.434 0 0 1 3.436 3.798c-.15.102-.298.205-.448.312-.367.066-.737.128-1.11.186-1.737.269-3.527.44-5.303.44" fill="#5397CC" mask="url(#d)"/></g><g transform="translate(6.99 33.133)"><mask id="f" fill="#fff"><use xlink:href="#e"/></mask><path d="M37.555.039v2.165c0 .696-.28 1.32-.735 1.778a2.496 2.496 0 0 1-1.775.736H3.992c-.696 0-1.319-.28-1.776-.736a2.504 2.504 0 0 1-.734-1.778V.04H.134v2.165a3.86 3.86 0 0 0 3.858 3.863h31.053a3.86 3.86 0 0 0 3.858-3.863V.04h-1.348" fill="#5397CC" mask="url(#f)"/></g><path d="M45.893 6.435V4.27A3.86 3.86 0 0 0 42.035.407H10.983A3.86 3.86 0 0 0 7.125 4.27v2.165h1.347V4.27c0-.697.28-1.32.735-1.778a2.497 2.497 0 0 1 1.776-.736h31.052c.696 0 1.32.28 1.775.736.456.457.735 1.081.736 1.778v2.165h1.347" fill="#5397CC"/></g></svg>